{
  "asset": {"generator": "SomeGI", "version": "2.0"},
  "scene": 0,
  "scenes": [{"nodes": [0, 1, 2]}],
  "nodes": [
    {"mesh": 0, "name": "Room"},
    {"mesh": 1, "name": "TallBlock"},
    {"mesh": 2, "name": "ShortBlock"}
  ],
  "meshes": [
    {
      "name": "Room",
      "primitives": [
        {"attributes": {"POSITION": 0, "NORMAL": 1}, "indices": 2, "material": 2, "mode": 4},
        {"attributes": {"POSITION": 3, "NORMAL": 4}, "indices": 5, "material": 1, "mode": 4},
        {"attributes": {"POSITION": 6, "NORMAL": 7}, "indices": 8, "material": 0, "mode": 4},
        {"attributes": {"POSITION": 9, "NORMAL": 10}, "indices": 11, "material": 0, "mode": 4},
        {"attributes": {"POSITION": 12, "NORMAL": 13}, "indices": 14, "material": 0, "mode": 4}
      ]
    },
    {
      "name": "TallBlock",
      "primitives": [
        {"attributes": {"POSITION": 15, "NORMAL": 16}, "indices": 17, "material": 0, "mode": 4}
      ]
    },
    {
      "name": "ShortBlock",
      "primitives": [
        {"attributes": {"POSITION": 18, "NORMAL": 19}, "indices": 20, "material": 0, "mode": 4}
      ]
    }
  ],
  "accessors": [
    {"bufferView": 0, "byteOffset": 0,   "componentType": 5126, "count": 4,  "type": "VEC3", "min": [-1,-1,-1], "max": [-1,1,1]},
    {"bufferView": 1, "byteOffset": 0,   "componentType": 5126, "count": 4,  "type": "VEC3"},
    {"bufferView": 2, "byteOffset": 0,   "componentType": 5125, "count": 6,  "type": "SCALAR"},
    {"bufferView": 0, "byteOffset": 48,  "componentType": 5126, "count": 4,  "type": "VEC3", "min": [1,-1,-1], "max": [1,1,1]},
    {"bufferView": 1, "byteOffset": 48,  "componentType": 5126, "count": 4,  "type": "VEC3"},
    {"bufferView": 2, "byteOffset": 24,  "componentType": 5125, "count": 6,  "type": "SCALAR"},
    {"bufferView": 0, "byteOffset": 96,  "componentType": 5126, "count": 4,  "type": "VEC3", "min": [-1,-1,-1], "max": [1,-1,1]},
    {"bufferView": 1, "byteOffset": 96,  "componentType": 5126, "count": 4,  "type": "VEC3"},
    {"bufferView": 2, "byteOffset": 48,  "componentType": 5125, "count": 6,  "type": "SCALAR"},
    {"bufferView": 0, "byteOffset": 144, "componentType": 5126, "count": 4,  "type": "VEC3", "min": [-1,1,-1], "max": [1,1,1]},
    {"bufferView": 1, "byteOffset": 144, "componentType": 5126, "count": 4,  "type": "VEC3"},
    {"bufferView": 2, "byteOffset": 72,  "componentType": 5125, "count": 6,  "type": "SCALAR"},
    {"bufferView": 0, "byteOffset": 192, "componentType": 5126, "count": 4,  "type": "VEC3", "min": [-1,-1,-1], "max": [1,1,-1]},
    {"bufferView": 1, "byteOffset": 192, "componentType": 5126, "count": 4,  "type": "VEC3"},
    {"bufferView": 2, "byteOffset": 96,  "componentType": 5125, "count": 6,  "type": "SCALAR"},
    {"bufferView": 0, "byteOffset": 240, "componentType": 5126, "count": 24, "type": "VEC3"},
    {"bufferView": 1, "byteOffset": 240, "componentType": 5126, "count": 24, "type": "VEC3"},
    {"bufferView": 2, "byteOffset": 120, "componentType": 5125, "count": 36, "type": "SCALAR"},
    {"bufferView": 0, "byteOffset": 528, "componentType": 5126, "count": 24, "type": "VEC3"},
    {"bufferView": 1, "byteOffset": 528, "componentType": 5126, "count": 24, "type": "VEC3"},
    {"bufferView": 2, "byteOffset": 264, "componentType": 5125, "count": 36, "type": "SCALAR"}
  ],
  "bufferViews": [
    {"buffer": 0, "byteOffset": 0,   "byteLength": 816, "target": 34962},
    {"buffer": 0, "byteOffset": 816, "byteLength": 816, "target": 34962},
    {"buffer": 0, "byteOffset": 1632,"byteLength": 408, "target": 34963}
  ],
  "materials": [
    {"name": "White", "pbrMetallicRoughness": {"baseColorFactor": [0.73, 0.73, 0.73], "metallicFactor": 0.0, "roughnessFactor": 0.8}},
    {"name": "Red",   "pbrMetallicRoughness": {"baseColorFactor": [0.65, 0.05, 0.05], "metallicFactor": 0.0, "roughnessFactor": 0.8}},
    {"name": "Green", "pbrMetallicRoughness": {"baseColorFactor": [0.12, 0.45, 0.15], "metallicFactor": 0.0, "roughnessFactor": 0.8}}
  ],
  "buffers": [
    {"byteLength": 2040, "uri": "CornellBox.bin"}
  ]
}
